<?xml version="1.0" encoding="UTF-8"?>
<svg xmlns="http://www.w3.org/2000/svg" xmlns:xlink="http://www.w3.org/1999/xlink" width="32px" height="32px" viewBox="0 0 8 8" version="1.1">
<g id="surface1">
<path style=" stroke:none;fill-rule:nonzero;fill:rgb(25.882353%,52.156863%,99.215686%);fill-opacity:1;" d="M 3.601562 5.925781 C 3.726562 5.925781 3.835938 6.023438 3.835938 6.164062 C 3.835938 6.289062 3.738281 6.398438 3.601562 6.398438 C 3.476562 6.398438 3.363281 6.300781 3.363281 6.164062 C 3.363281 6.023438 3.476562 5.925781 3.601562 5.925781 M 7.273438 4.476562 C 7.148438 4.476562 7.039062 4.375 7.039062 4.238281 C 7.039062 4.113281 7.136719 4 7.273438 4 C 7.398438 4 7.511719 4.101562 7.511719 4.238281 C 7.511719 4.363281 7.398438 4.476562 7.273438 4.476562 M 7.273438 3.511719 C 6.875 3.511719 6.550781 3.835938 6.550781 4.238281 C 6.550781 4.3125 6.5625 4.386719 6.585938 4.460938 L 4.199219 5.738281 C 4.0625 5.539062 3.835938 5.425781 3.601562 5.425781 C 3.324219 5.425781 3.074219 5.585938 2.949219 5.824219 L 0.800781 4.699219 C 0.574219 4.574219 0.398438 4.210938 0.425781 3.863281 C 0.4375 3.6875 0.5 3.550781 0.585938 3.5 C 0.648438 3.460938 0.710938 3.476562 0.800781 3.511719 L 0.8125 3.523438 C 1.386719 3.824219 3.25 4.800781 3.324219 4.835938 C 3.449219 4.886719 3.511719 4.914062 3.726562 4.8125 L 7.574219 2.8125 C 7.636719 2.789062 7.699219 2.738281 7.699219 2.648438 C 7.699219 2.539062 7.585938 2.488281 7.585938 2.488281 C 7.363281 2.386719 7.023438 2.226562 6.699219 2.074219 C 6 1.75 5.199219 1.375 4.851562 1.1875 C 4.550781 1.023438 4.300781 1.164062 4.261719 1.1875 L 4.175781 1.226562 C 2.585938 2.023438 0.488281 3.0625 0.363281 3.136719 C 0.148438 3.261719 0.0117188 3.523438 0 3.851562 C -0.0234375 4.363281 0.238281 4.898438 0.613281 5.085938 L 2.886719 6.261719 C 2.9375 6.613281 3.25 6.886719 3.601562 6.886719 C 4 6.886719 4.3125 6.574219 4.324219 6.175781 L 6.824219 4.824219 C 6.949219 4.925781 7.113281 4.976562 7.273438 4.976562 C 7.675781 4.976562 8 4.648438 8 4.25 C 8 3.835938 7.675781 3.511719 7.273438 3.511719 "/>
</g>
</svg>
