<?xml version="1.0" encoding="UTF-8"?>
<svg xmlns="http://www.w3.org/2000/svg" xmlns:xlink="http://www.w3.org/1999/xlink" width="32px" height="32px" viewBox="0 0 8 8" version="1.1">
<g id="surface1">
<path style=" stroke:none;fill-rule:nonzero;fill:rgb(0%,0%,0%);fill-opacity:1;" d="M 3.039062 0.558594 L 3.039062 0.800781 L 2.078125 0.800781 L 2.078125 1.28125 L 1.601562 1.28125 L 1.601562 1.757812 L 1.121094 1.757812 L 1.121094 2.242188 L 0.640625 2.242188 L 0.640625 3.71875 L 0.160156 3.71875 L 0.160156 5.640625 L 0.636719 5.640625 L 0.648438 5.867188 L 0.660156 6.101562 L 1.121094 6.125 L 1.121094 6.601562 L 1.601562 6.601562 L 1.601562 7.078125 L 2.078125 7.078125 L 2.078125 7.519531 L 3.039062 7.519531 L 3.039062 7.078125 L 4.960938 7.078125 L 4.960938 7.519531 L 5.921875 7.519531 L 5.921875 7.085938 L 6.171875 7.070312 L 6.421875 7.058594 L 6.429688 6.828125 L 6.445312 6.601562 L 6.878906 6.601562 L 6.878906 6.125 L 7.132812 6.113281 L 7.378906 6.101562 L 7.390625 5.871094 L 7.40625 5.640625 L 7.839844 5.640625 L 7.839844 3.71875 L 7.398438 3.71875 L 7.398438 2.242188 L 6.878906 2.242188 L 6.878906 1.757812 L 6.441406 1.757812 L 6.441406 1.28125 L 5.921875 1.28125 L 5.921875 0.800781 L 4.960938 0.800781 L 4.960938 0.320312 L 3.039062 0.320312 Z M 4.496094 1.167969 C 4.507812 1.367188 4.519531 1.691406 4.519531 1.886719 L 4.519531 2.242188 L 3.519531 2.242188 L 3.519531 1.886719 C 3.519531 1.691406 3.53125 1.367188 3.542969 1.167969 L 3.570312 0.800781 L 4.46875 0.800781 Z M 4.511719 3.226562 L 4.5 3.699219 L 3.539062 3.699219 L 3.527344 3.226562 L 3.515625 2.757812 L 4.523438 2.757812 Z M 3.039062 3.921875 L 3.039062 4.160156 L 3.519531 4.160156 L 3.519531 4.679688 L 4.476562 4.679688 L 4.5 4.179688 L 4.734375 4.167969 L 4.960938 4.15625 L 4.960938 3.679688 L 5.921875 3.679688 L 5.921875 4.15625 L 6.421875 4.179688 L 6.429688 5.386719 L 6.441406 6.601562 L 5.921875 6.601562 L 5.921875 7.078125 L 4.960938 7.078125 L 4.960938 6.601562 L 5.480469 6.601562 L 5.480469 6.121094 L 2.558594 6.121094 L 2.558594 6.601562 L 3.039062 6.601562 L 3.039062 7.078125 L 2.078125 7.078125 L 2.078125 6.601562 L 1.601562 6.601562 L 1.609375 5.386719 L 1.621094 4.179688 L 1.851562 4.167969 L 2.078125 4.15625 L 2.078125 3.679688 L 3.039062 3.679688 Z M 1.121094 4.679688 L 1.121094 5.640625 L 0.640625 5.640625 L 0.640625 3.71875 L 1.121094 3.71875 Z M 7.398438 4.679688 L 7.398438 5.640625 L 6.878906 5.640625 L 6.878906 3.71875 L 7.398438 3.71875 Z M 7.398438 4.679688 "/>
<path style=" stroke:none;fill-rule:nonzero;fill:rgb(0%,0%,0%);fill-opacity:1;" d="M 2.558594 5.160156 L 2.558594 5.640625 L 3.519531 5.640625 L 3.519531 4.679688 L 2.558594 4.679688 Z M 2.558594 5.160156 "/>
<path style=" stroke:none;fill-rule:nonzero;fill:rgb(0%,0%,0%);fill-opacity:1;" d="M 4.519531 5.160156 L 4.519531 5.640625 L 5.480469 5.640625 L 5.480469 4.679688 L 4.519531 4.679688 Z M 4.519531 5.160156 "/>
</g>
</svg>
